<?xml version="1.0" encoding="UTF-8"?>
<svg width="128pt" height="128pt" version="1.1" viewBox="0 0 128 128" xmlns="http://www.w3.org/2000/svg">
 <path d="m77 29.301c-3.2852-1.1602-5.2578-4.1328-7.5391-7.5742-2.3984-3.6211-5.1211-7.7266-9.8984-9.8711-10.02-4.5078-21.625 1.2344-30.098 5.4258-0.98828 0.49219-1.9453 0.96094-2.8555 1.3984-5.4648 2.6133-7.9102 2.9805-8.7578 3.0117l-3.4688-12.707c-0.50781-1.8672-2.4297-2.9688-4.3047-2.4609-1.8672 0.51172-2.9648 2.4375-2.457 4.3047l14.695 53.855 1.1797 4.6445 0.24219 0.57031 13.402 49.117c0.42578 1.5586 1.8398 2.5859 3.3789 2.5859 0.30469 0 0.61719-0.039062 0.92578-0.125 1.8672-0.50781 2.9688-2.4375 2.457-4.3047l-12.055-44.176c8.5664-5.9062 22.555-13.984 29.102-13.984 0.14453 0 0.28906 0.003906 0.42578 0.011719 1.6133 0.09375 1.7773 0.28906 2.5508 2.9922 2.0273 7.0898 6.0273 10.699 19.68 6.8164 23.172-6.5977 34.109-37.484 34.566-38.797l2.3281-6.7227-6.75 2.25c-7.625 2.543-27.465 7.0117-36.75 3.7383zm-48.02 32.262c-0.0625 0.058594-0.11328 0.12891-0.17188 0.19531l-7.5938-29.914c5.6523 1.4648 10.59 5.9258 12.418 11.469 2.0625 6.25 0.14844 13.754-4.6523 18.25z" fill="#fff"/>
</svg>
