
<svg class="w-36 h-36 fill-stone-100" viewBox="0 0 128 128">
 <g>
  <path d="m39.75 59.672c0.95703-0.51172 1.5273-1.4766 1.5273-2.5195v-8.8477h45.445c9.1055 0 16.512 7.2148 16.512 16.32 0 0.46875-0.097656 0.82422-0.14062 1.2891l18.715 10.691c1.3125-3.8008 2.0625-7.707 2.0625-11.953 0-20.52-16.629-36.98-37.148-36.98h-45.445v-11.129c0-1.043-0.56641-2.0078-1.5273-2.5195-0.96094-0.51172-2.125-0.49609-3.0703 0.050781l-35.219 20.301c-0.90625 0.52344-1.4609 1.4609-1.4609 2.4727 0 1.0117 0.55859 1.9492 1.4609 2.4727l35.227 20.301c0.94531 0.54688 2.0977 0.5625 3.0625 0.050781z"/>
  <path d="m126.54 88.789-35.23-20.219c-0.94531-0.54297-2.1133-0.56641-3.0742-0.054687-0.96094 0.51172-1.5469 1.4727-1.5469 2.5156v10.297h-45.367c-9.1055 0-16.512-7.5938-16.512-16.699 0-0.67969 0.12109-1.4258 0.20312-2.0859l-18.574-10.742c-1.4375 3.9727-2.2656 8.3906-2.2656 12.852 0 20.516 16.629 37.32 37.148 37.32h45.367v9.5078c0 1.0391 0.58594 2 1.5469 2.5078 0.96094 0.50781 2.1367 0.48828 3.0781-0.054687l35.227-20.219c0.90625-0.52344 1.4609-1.457 1.4609-2.4648 0-1-0.55469-1.9375-1.4609-2.4609z"/>
 </g>
</svg>
