            <svg class="h-8 w-8 fill-back absolute" viewBox="0 0 128 128">
                <g>
                 <path d="m39.465 96 48-48 29.867-37.332-37.332 29.867-48 48-6.9336-6.9336c-2.1328-2.1328-5.332-2.1328-7.4648 0-2.1328 2.1328-2.1328 5.332 0 7.4648l6.9336 6.9336-12.266 12.266c-2.1328 2.1328-2.1328 5.332 0 7.4648 1.0625 1.0703 2.1289 1.6016 3.7305 1.6016s2.668-0.53516 3.7344-1.6016l12.266-12.266 6.3984 6.3984c1.0664 1.0664 2.668 1.6016 3.7344 1.6016 1.6016 0 2.668-0.53516 3.7344-1.6016 2.1328-2.1328 2.1328-5.332 0-7.4648z"/>
                 <path d="m49.066 56.535 7.4688-7.4688-8.5352-8.5312-37.332-29.867 29.867 37.332z"/>
                 <path d="m103.46 96 6.9336-6.9336c2.1328-2.1328 2.1328-5.332 0-7.4648-2.1328-2.1328-5.332-2.1328-7.4648 0l-6.9336 6.9336-17.066-17.066-7.4648 7.4648 17.066 17.066-6.3984 6.3984c-2.1328 2.1328-2.1328 5.332 0 7.4648 1.0664 1.0664 2.668 1.6016 3.7344 1.6016 1.6016 0 2.668-0.53516 3.7344-1.6016l6.3984-6.3984 12.266 12.266c1.0664 1.0664 2.668 1.6016 3.7344 1.6016 1.6016 0 2.668-0.53516 3.7344-1.6016 2.1328-2.1328 2.1328-5.332 0-7.4648z"/>
                </g>
               </svg>